<svg width="53" height="63" viewBox="0 0 53 63" fill="none" xmlns="http://www.w3.org/2000/svg">
<path d="M15.3824 38.2034L9.90681 32.9891C9.44922 32.5547 8.90862 32.2172 8.31743 31.9969C7.72624 31.7765 7.09664 31.6779 6.46638 31.7067C5.83612 31.7356 5.21819 31.8915 4.64964 32.165C4.08108 32.4385 3.57363 32.8241 3.15769 33.2985C2.39356 34.1727 1.98123 35.2995 2.00066 36.4605C2.02008 37.6214 2.46986 38.7338 3.26282 39.582L21.1103 58.6189C22.2486 59.8294 23.8315 60.5172 25.4925 60.5172H39.4113C46.6199 60.5172 51.4257 54.51 51.4257 48.5027V22.7588" stroke="#1F1305" stroke-width="3" stroke-linecap="round" stroke-linejoin="round"/>
<path d="M51.4261 24.3138C51.4261 17.4476 42.4153 17.4476 42.4153 24.3138V26.0289V20.8807C42.4153 14.0144 33.4045 14.0144 33.4045 20.8807V26.0289V18.5199C33.4045 11.6536 24.3936 11.6536 24.3936 18.5199V26.0289V6.50241C24.3936 4.01242 22.3752 2 19.8882 2C18.6933 2 17.5473 2.47468 16.7024 3.31961C15.8575 4.16454 15.3828 5.31051 15.3828 6.50542V39.7584" stroke="#1F1305" stroke-width="3" stroke-linecap="round" stroke-linejoin="round"/>
</svg>
