<svg width="53" height="57" viewBox="0 0 53 57" fill="none" xmlns="http://www.w3.org/2000/svg">
<path d="M48.2578 4.4375H41.0469V1.66406C41.0469 1.22273 40.8716 0.799465 40.5595 0.487392C40.2474 0.17532 39.8242 0 39.3828 0C38.9415 0 38.5182 0.17532 38.2061 0.487392C37.8941 0.799465 37.7188 1.22273 37.7188 1.66406V4.4375H14.4219V1.66406C14.4219 1.22273 14.2466 0.799465 13.9345 0.487392C13.6224 0.17532 13.1991 0 12.7578 0C12.3165 0 11.8932 0.17532 11.5811 0.487392C11.2691 0.799465 11.0938 1.22273 11.0938 1.66406V4.4375H3.88281C2.85303 4.4375 1.86542 4.84658 1.13725 5.57475C0.409081 6.30292 0 7.29053 0 8.32031V52.6953C0 53.7251 0.409081 54.7127 1.13725 55.4409C1.86542 56.169 2.85303 56.5781 3.88281 56.5781H48.2578C49.2876 56.5781 50.2752 56.169 51.0034 55.4409C51.7315 54.7127 52.1406 53.7251 52.1406 52.6953V8.32031C52.1406 7.29053 51.7315 6.30292 51.0034 5.57475C50.2752 4.84658 49.2876 4.4375 48.2578 4.4375ZM3.88281 7.76562H11.0938V10.5391C11.0938 10.9804 11.2691 11.4037 11.5811 11.7157C11.8932 12.0278 12.3165 12.2031 12.7578 12.2031C13.1991 12.2031 13.6224 12.0278 13.9345 11.7157C14.2466 11.4037 14.4219 10.9804 14.4219 10.5391V7.76562H37.7188V10.5391C37.7188 10.9804 37.8941 11.4037 38.2061 11.7157C38.5182 12.0278 38.9415 12.2031 39.3828 12.2031C39.8242 12.2031 40.2474 12.0278 40.5595 11.7157C40.8716 11.4037 41.0469 10.9804 41.0469 10.5391V7.76562H48.2578C48.4049 7.76562 48.546 7.82406 48.65 7.92809C48.7541 8.03211 48.8125 8.1732 48.8125 8.32031V17.75H3.32812V8.32031C3.32812 8.1732 3.38656 8.03211 3.49059 7.92809C3.59461 7.82406 3.7357 7.76562 3.88281 7.76562ZM48.2578 53.25H3.88281C3.7357 53.25 3.59461 53.1916 3.49059 53.0875C3.38656 52.9835 3.32812 52.8424 3.32812 52.6953V21.0781H48.8125V52.6953C48.8125 52.8424 48.7541 52.9835 48.65 53.0875C48.546 53.1916 48.4049 53.25 48.2578 53.25ZM21.0781 28.2891V46.0391C21.0781 46.4804 20.9028 46.9037 20.5907 47.2157C20.2787 47.5278 19.8554 47.7031 19.4141 47.7031C18.9727 47.7031 18.5495 47.5278 18.2374 47.2157C17.9253 46.9037 17.75 46.4804 17.75 46.0391V30.9821L15.7198 31.9971C15.5243 32.0948 15.3114 32.1529 15.0933 32.1682C14.8753 32.1836 14.6563 32.1558 14.449 32.0865C14.2417 32.0172 14.0501 31.9078 13.885 31.7645C13.72 31.6211 13.5848 31.4467 13.4872 31.2511C13.3896 31.0555 13.3315 30.8426 13.3162 30.6246C13.3008 30.4065 13.3286 30.1876 13.3979 29.9803C13.4671 29.773 13.5766 29.5813 13.7199 29.4163C13.8633 29.2513 14.0377 29.1161 14.2333 29.0185L18.6708 26.7997C18.9245 26.673 19.2064 26.6133 19.4897 26.6262C19.7731 26.6391 20.0484 26.7242 20.2896 26.8734C20.5307 27.0226 20.7298 27.231 20.8678 27.4788C21.0058 27.7265 21.0782 28.0055 21.0781 28.2891ZM37.5995 36.4014L31.6172 44.375H37.1641C37.6054 44.375 38.0287 44.5503 38.3407 44.8624C38.6528 45.1745 38.8281 45.5977 38.8281 46.0391C38.8281 46.4804 38.6528 46.9037 38.3407 47.2157C38.0287 47.5278 37.6054 47.7031 37.1641 47.7031H28.2891C27.98 47.7031 27.6771 47.6171 27.4142 47.4546C27.1513 47.2921 26.9389 47.0597 26.8007 46.7833C26.6625 46.5068 26.604 46.1974 26.6317 45.8896C26.6595 45.5818 26.7724 45.2878 26.9578 45.0406L34.9453 34.3906C35.1753 34.0884 35.3408 33.7422 35.4315 33.3734C35.5222 33.0046 35.5362 32.6211 35.4726 32.2467C35.409 31.8722 35.2692 31.5148 35.0619 31.1967C34.8545 30.8785 34.584 30.6063 34.2671 30.3969C33.9502 30.1876 33.5938 30.0456 33.2197 29.9796C32.8457 29.9137 32.4621 29.9253 32.0928 30.0137C31.7234 30.1021 31.3762 30.2654 31.0725 30.4936C30.7689 30.7217 30.5153 31.0097 30.3275 31.3398C30.2283 31.5467 30.0873 31.7309 29.9135 31.8807C29.7397 32.0305 29.5368 32.1428 29.3175 32.2104C29.0982 32.278 28.8673 32.2995 28.6393 32.2736C28.4113 32.2477 28.1911 32.1749 27.9926 32.0598C27.794 31.9448 27.6215 31.7898 27.4857 31.6049C27.3499 31.4199 27.2538 31.2088 27.2035 30.9849C27.1532 30.761 27.1498 30.5291 27.1934 30.3038C27.237 30.0786 27.3268 29.8647 27.457 29.6758C27.8752 28.9578 28.4357 28.3328 29.104 27.8392C29.7723 27.3455 30.5344 26.9935 31.3435 26.8048C32.1527 26.616 32.9919 26.5946 33.8096 26.7417C34.6274 26.8888 35.4065 27.2014 36.0991 27.6602C36.7918 28.1191 37.3835 28.7146 37.8378 29.4103C38.2922 30.1059 38.5997 30.887 38.7414 31.7057C38.8832 32.5244 38.8563 33.3634 38.6623 34.1714C38.4683 34.9793 38.1114 35.7391 37.6134 36.4041L37.5995 36.4014Z" fill="#1F1305"/>
</svg>
