<svg width="52" height="52" viewBox="0 0 52 52" fill="none" xmlns="http://www.w3.org/2000/svg">
<path d="M26 0C20.8577 0 15.8309 1.52487 11.5552 4.38179C7.27951 7.23871 3.94702 11.2994 1.97914 16.0502C0.0112649 20.8011 -0.503621 26.0288 0.499594 31.0723C1.50281 36.1158 3.97907 40.7486 7.61523 44.3848C11.2514 48.0209 15.8842 50.4972 20.9277 51.5004C25.9712 52.5036 31.1989 51.9887 35.9498 50.0209C40.7007 48.053 44.7613 44.7205 47.6182 40.4448C50.4751 36.1691 52 31.1423 52 26C51.9919 19.1069 49.25 12.4984 44.3758 7.62416C39.5016 2.74997 32.8932 0.0080953 26 0ZM5.20766 35.6863H16.4233C16.5271 35.6865 16.6283 35.7183 16.7134 35.7775C16.7986 35.8367 16.8637 35.9205 16.9 36.0176L21.5724 48.5078C18.03 47.8044 14.7029 46.2772 11.86 44.0498C9.01714 41.8225 6.73827 38.9574 5.20766 35.6863ZM30.4098 48.5129L35.0924 36.0227C35.1288 35.9252 35.1943 35.8411 35.28 35.7818C35.3656 35.7226 35.4674 35.691 35.5716 35.6914H46.7873C45.2556 38.9641 42.9748 41.8303 40.1295 44.0578C37.2843 46.2852 33.9545 47.8115 30.4098 48.5129ZM47.9649 32.6274H35.5716C34.8449 32.6275 34.1356 32.8494 33.5384 33.2634C32.9412 33.6775 32.4847 34.264 32.2298 34.9445L26.9916 48.9182C26.6628 48.9335 26.3314 48.9412 26 48.9412C25.6686 48.9412 25.3296 48.9412 24.9957 48.9182L19.7702 34.9471C19.5139 34.2673 19.0571 33.6814 18.4603 33.2672C17.8635 32.8529 17.1549 32.6298 16.4284 32.6274H4.03511C3.86942 32.0743 3.72158 31.5135 3.59668 30.9425C6.49799 27.9289 9.97751 25.5315 13.827 23.894C17.6764 22.2565 21.8167 21.4125 26 21.4125C30.1833 21.4125 34.3236 22.2565 38.173 23.894C42.0225 25.5315 45.502 27.9289 48.4033 30.9425C48.2784 31.5135 48.1306 32.0743 47.9649 32.6274ZM26 18.3529C17.5344 18.364 9.37278 21.5095 3.08942 27.1827C3.05883 26.7902 3.05883 26.3976 3.05883 26C3.05883 19.9156 5.47584 14.0804 9.77815 9.77814C14.0805 5.47583 19.9156 3.05882 26 3.05882C32.0844 3.05882 37.9196 5.47583 42.2219 9.77814C46.5242 14.0804 48.9412 19.9156 48.9412 26C48.9412 26.3976 48.9412 26.7902 48.9106 27.1827C42.6272 21.5095 34.4656 18.364 26 18.3529ZM28.549 29.0588C28.549 29.563 28.3995 30.0558 28.1194 30.475C27.8393 30.8942 27.4412 31.2209 26.9755 31.4138C26.5097 31.6067 25.9972 31.6572 25.5027 31.5589C25.0083 31.4605 24.5541 31.2177 24.1976 30.8612C23.8411 30.5048 23.5983 30.0506 23.5 29.5561C23.4016 29.0616 23.4521 28.5491 23.645 28.0834C23.8379 27.6176 24.1647 27.2195 24.5838 26.9394C25.003 26.6593 25.4959 26.5098 26 26.5098C26.676 26.5098 27.3244 26.7784 27.8024 27.2564C28.2805 27.7344 28.549 28.3828 28.549 29.0588Z" fill="#1F1305"/>
</svg>
