<svg width="32" height="24" viewBox="0 0 32 24" fill="none" xmlns="http://www.w3.org/2000/svg">
<path fill-rule="evenodd" clip-rule="evenodd" d="M24.8439 3.91275C22.6579 1.509 19.5051 0 16 0C12.4949 0 9.34212 1.509 7.15613 3.91275H24.8439ZM7.15625 19.9888C9.34225 22.3925 12.495 23.9015 16.0001 23.9015C19.5053 23.9015 22.658 22.3925 24.844 19.9888H7.15625ZM5.308 4.92887C2.3765 4.92887 0 7.30538 0 10.237V13.6645C0 16.596 2.3765 18.9725 5.308 18.9725H26.692C29.6235 18.9725 32 16.596 32 13.6645V10.237C32 7.30538 29.6235 4.92887 26.692 4.92887H5.308ZM31.454 10.1764C31.454 7.57975 29.3491 5.47487 26.7526 5.47487H21.4445C18.848 5.47487 16.7431 7.57975 16.7431 10.1763V13.7402C16.7431 16.3369 14.6383 18.4417 12.0417 18.4417H26.7525C29.349 18.4417 31.4539 16.3368 31.4539 13.7402L31.454 10.1764ZM13.0125 10.4946V15.5146H14.529V10.4946H13.0125ZM12.8608 8.90987C12.8608 9.1492 12.9558 9.37872 13.125 9.54795C13.2943 9.71718 13.5238 9.81225 13.7631 9.81225C14.0024 9.81225 14.232 9.71718 14.4012 9.54795C14.5704 9.37872 14.6655 9.1492 14.6655 8.90987C14.6655 8.67055 14.5704 8.44103 14.4012 8.2718C14.232 8.10257 14.0024 8.0075 13.7631 8.0075C13.5238 8.0075 13.2943 8.10257 13.125 8.2718C12.9558 8.44103 12.8608 8.67055 12.8608 8.90987ZM2.745 8.18962L4.70138 15.5146H5.96012L7.43138 10.4493L8.90238 15.5147H10.2066L12.1327 8.18962H10.6615L9.53938 13.0124L8.14412 8.18962H6.79437L5.399 12.891L4.3375 8.18962H2.745ZM19.1545 8.18962V15.5146H20.762V12.6484H24.402V11.1621H20.762V9.67587H24.6445V8.18962H19.1545ZM25.7365 10.4948V15.5147H27.2531V10.4948H25.7365ZM25.6 8.89475C25.6 9.13407 25.6951 9.3636 25.8643 9.53283C26.0335 9.70205 26.2631 9.79712 26.5024 9.79712C26.7417 9.79712 26.9712 9.70205 27.1405 9.53283C27.3097 9.3636 27.4048 9.13407 27.4048 8.89475C27.4048 8.65543 27.3097 8.4259 27.1405 8.25667C26.9712 8.08745 26.7417 7.99237 26.5024 7.99237C26.2631 7.99237 26.0335 8.08745 25.8643 8.25667C25.6951 8.4259 25.6 8.65543 25.6 8.89475Z" fill="#1F1305"/>
</svg>
