<svg width="18" height="18" viewBox="0 0 18 18" fill="none" xmlns="http://www.w3.org/2000/svg">
<path d="M17 5.8839V12.995C17 14.1737 16.5317 15.3042 15.6983 16.1377C14.8648 16.9712 13.7343 17.4395 12.5556 17.4395H5.44444C4.2657 17.4395 3.13524 16.9712 2.30175 16.1377C1.46825 15.3042 1 14.1737 1 12.995V5.8839C1 4.70516 1.46825 3.5747 2.30175 2.7412C3.13524 1.90771 4.2657 1.43945 5.44444 1.43945H12.5556C13.7343 1.43945 14.8648 1.90771 15.6983 2.7412C16.5317 3.5747 17 4.70516 17 5.8839Z" stroke="black" stroke-linecap="round" stroke-linejoin="round"/>
<path d="M8.10981 17.4393V9.43934C8.10981 7.49534 8.55425 5.88379 11.6654 5.88379M6.33203 10.3282H11.6654" stroke="black" stroke-linecap="round" stroke-linejoin="round"/>
</svg>
