<svg width="18" height="18" viewBox="0 0 18 18" fill="none" xmlns="http://www.w3.org/2000/svg">
<path d="M7.20703 11.4974C7.53908 11.9199 7.84102 12.3652 8.11063 12.83C8.31741 13.2324 8.4833 13.6545 8.60579 14.09C8.70871 14.3811 8.80222 14.4678 9.00275 14.4678C9.22181 14.4678 9.32091 14.3202 9.39765 14.0915C9.51728 13.665 9.6785 13.2514 9.879 12.8565C10.2725 12.1878 10.7205 11.5526 11.2184 10.9575C11.7205 10.3643 12.1647 9.72424 12.5448 9.04626C12.8481 8.41428 13.0044 7.72187 13.002 7.02089C13.0061 6.37033 12.8514 5.7286 12.5513 5.15137" stroke="black" stroke-linecap="round" stroke-linejoin="round"/>
<path d="M5.39453 8.90381C5.82295 9.88268 6.64921 10.743 7.20819 11.4979M10.1777 7.98051C10.0324 8.151 9.85193 8.28813 9.64875 8.38256C9.44558 8.47699 9.22443 8.52651 9.00038 8.52773C8.79962 8.52866 8.60065 8.48984 8.41496 8.4135C8.22927 8.33716 8.06053 8.22482 7.91847 8.08295C7.77641 7.94108 7.66384 7.7725 7.58726 7.58691C7.51067 7.40132 7.47158 7.20241 7.47224 7.00164C7.47717 6.64364 7.60075 6.2974 7.82362 6.01719M10.2107 3.18085C10.7116 3.33834 11.1764 3.59353 11.5782 3.93168C11.98 4.26982 12.3108 4.68422 12.5515 5.15094M10.1786 7.97875C10.4002 7.69639 10.5235 7.34936 10.5297 6.99047C10.5259 6.58735 10.3638 6.20188 10.0784 5.9172C9.79295 5.63253 9.40704 5.47148 9.00391 5.4688C8.77997 5.47188 8.5592 5.52213 8.35598 5.61626C8.15276 5.7104 7.97167 5.84631 7.8245 6.01513M5.93851 4.43053C6.31108 3.98216 6.77796 3.62149 7.30589 3.37422C7.83381 3.12696 8.40978 2.99918 8.99274 3.00001C9.40479 2.99906 9.81461 3.06043 10.2083 3.18202" stroke="black" stroke-linecap="round" stroke-linejoin="round"/>
<path d="M5.39421 8.90394C5.12852 8.30956 4.99413 7.66487 5.0002 7.01383C4.99584 6.06865 5.32839 5.15283 5.93819 4.43066" stroke="black" stroke-linecap="round" stroke-linejoin="round"/>
<rect x="0.5" y="0.5" width="17" height="17" rx="5.5" stroke="#1F1305"/>
</svg>
