<svg width="18" height="18" viewBox="0 0 18 18" fill="none" xmlns="http://www.w3.org/2000/svg">
<path d="M1 9C1 5.22905 1 3.34274 2.17137 2.17137C3.34274 1 5.22821 1 9 1C12.7709 1 14.6573 1 15.8286 2.17137C17 3.34274 17 5.22821 17 9C17 12.7709 17 14.6573 15.8286 15.8286C14.6573 17 12.7718 17 9 17C5.22905 17 3.34274 17 2.17137 15.8286C1 14.6573 1 12.7718 1 9Z" stroke="#1F1305" stroke-linecap="round" stroke-linejoin="round"/>
<path d="M13.6387 4.36914H13.6303M12.7899 9.00072C12.7899 10.0058 12.3906 10.9696 11.68 11.6803C10.9693 12.3909 10.0054 12.7902 9.00041 12.7902C7.99538 12.7902 7.03151 12.3909 6.32085 11.6803C5.61018 10.9696 5.21094 10.0058 5.21094 9.00072C5.21094 7.99569 5.61018 7.03182 6.32085 6.32116C7.03151 5.61049 7.99538 5.21125 9.00041 5.21125C10.0054 5.21125 10.9693 5.61049 11.68 6.32116C12.3906 7.03182 12.7899 7.99569 12.7899 9.00072Z" stroke="#1F1305" stroke-linecap="round" stroke-linejoin="round"/>
</svg>
