<svg width="18" height="18" viewBox="0 0 18 18" fill="none" xmlns="http://www.w3.org/2000/svg">
<path d="M14.412 8.28452C14.5526 7.6904 15 7.09592 15 7.09592H12.9941C11.8672 6.37848 10.5014 6 8.98594 6C7.41576 6 5.99784 6.38438 4.87843 7.10773H3C3 7.10773 3.44101 7.69225 3.58352 8.2823C3.21863 8.77857 3 9.37675 3 10.0344C3 11.665 4.34967 12.9924 6.00572 12.9924C6.95337 12.9924 7.79265 12.5556 8.34767 11.8828L8.98406 12.8251L9.63058 11.871C9.92203 12.2403 10.2999 12.5348 10.732 12.7291C11.4606 13.0541 12.2789 13.0906 13.0289 12.8174C14.5819 12.2502 15.3765 10.5425 14.8065 9.01378C14.7083 8.75206 14.572 8.50579 14.4019 8.28267L14.412 8.28452ZM12.8257 12.2594C12.5305 12.3683 12.2163 12.4181 11.9013 12.4059C11.5864 12.3938 11.2771 12.3199 10.9915 12.1885C10.5853 12.0031 10.2406 11.7083 9.99734 11.3382C9.89534 11.1905 9.80984 11.0306 9.74534 10.8596C9.67071 10.665 9.63583 10.4653 9.61633 10.2615C9.57921 9.85196 9.63771 9.43841 9.81734 9.05366C9.94947 8.77138 10.1369 8.51753 10.3688 8.30667C10.6007 8.0958 10.8726 7.93206 11.1689 7.82481C12.4135 7.3747 13.794 8.00352 14.2511 9.22462C14.7101 10.4461 14.0715 11.806 12.8332 12.258H12.8257V12.2594ZM7.99178 11.3563C7.7722 11.6763 7.47631 11.9384 7.13002 12.1197C6.78372 12.3011 6.39757 12.3961 6.00534 12.3964C4.68343 12.3964 3.60489 11.3349 3.60489 10.0347C3.60489 8.73463 4.68343 7.6712 6.00534 7.6712C7.32801 7.6712 8.40392 8.73463 8.40392 10.0347C8.40392 10.1156 8.39042 10.1883 8.38029 10.2711C8.33942 10.6695 8.21041 11.0465 7.99178 11.3637V11.3563ZM4.47942 10.0037C4.47942 10.8116 5.14732 11.4656 5.96597 11.4656C6.78462 11.4656 7.45064 10.8116 7.45064 10.0037C7.45064 9.61602 7.29422 9.24419 7.01579 8.97005C6.73736 8.6959 6.35973 8.54188 5.96597 8.54188C5.57221 8.54188 5.19458 8.6959 4.91615 8.97005C4.63772 9.24419 4.4813 9.61602 4.4813 10.0037H4.47942ZM10.5051 10.0037C10.5048 10.2927 10.5916 10.5753 10.7545 10.8158C10.9174 11.0562 11.149 11.2437 11.4201 11.3544C11.6913 11.4652 11.9897 11.4943 12.2776 11.438C12.5655 11.3817 12.83 11.2426 13.0375 11.0382C13.2451 10.8339 13.3865 10.5735 13.4437 10.29C13.501 10.0066 13.4715 9.71276 13.3591 9.44578C13.2467 9.17879 13.0564 8.95065 12.8122 8.79021C12.5681 8.62977 12.2811 8.54425 11.9875 8.54447C11.5943 8.54486 11.2173 8.69864 10.9391 8.97215C10.6608 9.24565 10.504 9.61659 10.5029 10.0037H10.5051ZM4.99356 10.0037C4.99366 9.75046 5.09563 9.50754 5.27716 9.32811C5.45869 9.14868 5.705 9.04735 5.96222 9.04627C6.49361 9.04627 6.93687 9.47718 6.93687 10.0037C6.93687 10.2585 6.83409 10.5028 6.65113 10.683C6.46817 10.8631 6.22002 10.9643 5.96128 10.9643C5.70254 10.9643 5.45439 10.8631 5.27143 10.683C5.08847 10.5028 4.98569 10.2585 4.98569 10.0037H4.99356ZM11.0114 10.0037C11.0114 9.74979 11.1138 9.50626 11.2962 9.3267C11.4785 9.14715 11.7259 9.04627 11.9838 9.04627C12.2387 9.05187 12.4813 9.15571 12.6593 9.33549C12.8374 9.51527 12.9367 9.75663 12.936 10.0077C12.9352 10.2588 12.8345 10.4996 12.6554 10.6784C12.4763 10.8572 12.2331 10.9596 11.9782 10.9638C11.8501 10.9639 11.7232 10.9392 11.6049 10.891C11.4865 10.8428 11.3789 10.7721 11.2884 10.6829C11.1978 10.5937 11.126 10.4878 11.077 10.3713C11.0281 10.2547 11.003 10.1298 11.0031 10.0037H11.0114ZM8.98369 6.51694C10.0637 6.51694 11.0388 6.70747 11.8942 7.08853C11.5687 7.09679 11.2467 7.15651 10.9405 7.2654C10.5692 7.39816 10.2287 7.60266 9.93889 7.8669C9.64908 8.13114 9.41586 8.44977 9.25295 8.80405C9.09694 9.12898 9.01481 9.47312 8.98331 9.82132C8.92811 9.0852 8.59604 8.39583 8.05204 7.88798C7.50803 7.38014 6.79121 7.09033 6.04172 7.07524C6.89712 6.71375 7.88978 6.51731 8.96194 6.51731L8.98369 6.51694Z" fill="#1F1305"/>
<rect x="0.5" y="0.5" width="17" height="17" rx="5.5" stroke="#1F1305"/>
</svg>
