<svg width="18" height="18" viewBox="0 0 18 18" fill="none" xmlns="http://www.w3.org/2000/svg">
<rect x="0.5" y="0.5" width="17" height="17" rx="5.5" stroke="#1F1305"/>
<path d="M5.63734 5.00165C5.48247 4.97897 5.3245 5.01015 5.18985 5.08998H5.17819C4.86569 5.27331 4.58403 5.50414 4.34403 5.7758C4.14404 6.00663 4.03571 6.23996 4.00737 6.46495C3.99071 6.59828 4.00237 6.73328 4.04154 6.86078L4.05654 6.86911C4.28154 7.52993 4.57486 8.16575 4.93319 8.76408C5.39543 9.60434 5.96398 10.3816 6.62482 11.0765L6.64482 11.1049L6.67649 11.1282L6.69566 11.1507L6.71899 11.1707C7.41646 11.8335 8.19549 12.4047 9.03728 12.8707C9.99976 13.3948 10.5839 13.6423 10.9347 13.7456V13.7506C11.0372 13.7823 11.1306 13.7965 11.2247 13.7965C11.5237 13.775 11.8067 13.6535 12.0281 13.4515C12.2989 13.2115 12.528 12.929 12.7064 12.6148V12.609C12.8739 12.2923 12.8172 11.994 12.5755 11.7915C12.0905 11.3669 11.5656 10.9901 11.0081 10.6665C10.6347 10.464 10.2556 10.5865 10.1023 10.7915L9.77477 11.2049C9.60643 11.4099 9.30144 11.3815 9.30144 11.3815L9.29311 11.3865C7.01732 10.8057 6.40983 8.50158 6.40983 8.50158C6.40983 8.50158 6.3815 8.18825 6.59233 8.02826L7.00232 7.69826C7.19898 7.53827 7.33564 7.15994 7.12482 6.78661C6.80197 6.22948 6.42606 5.70483 6.00234 5.21998C5.90965 5.10613 5.77984 5.02854 5.63568 5.00081M9.4831 4C9.3726 4 9.26662 4.0439 9.18848 4.12204C9.11034 4.20018 9.06644 4.30615 9.06644 4.41666C9.06644 4.52716 9.11034 4.63314 9.18848 4.71128C9.26662 4.78942 9.3726 4.83332 9.4831 4.83332C10.5364 4.83332 11.4114 5.17748 12.1039 5.83747C12.4597 6.19829 12.7372 6.62578 12.9189 7.09411C13.1014 7.56327 13.1847 8.06409 13.163 8.56575C13.1584 8.67625 13.1978 8.78407 13.2727 8.86549C13.3476 8.94692 13.4517 8.99526 13.5622 8.99991C13.6727 9.00455 13.7805 8.9651 13.8619 8.89024C13.9434 8.81539 13.9917 8.71125 13.9964 8.60075C14.0212 7.98372 13.9188 7.36819 13.6955 6.79245C13.4712 6.21378 13.1296 5.68777 12.6922 5.24748L12.6839 5.23914C11.8247 4.41833 10.7381 4 9.4831 4Z" fill="black"/>
<path d="M9.45572 5.36997C9.34522 5.36997 9.23924 5.41387 9.1611 5.49201C9.08296 5.57015 9.03906 5.67613 9.03906 5.78663C9.03906 5.89714 9.08296 6.00312 9.1611 6.08125C9.23924 6.15939 9.34522 6.20329 9.45572 6.20329H9.46989C10.2299 6.25746 10.7832 6.51079 11.1707 6.92661C11.5682 7.35494 11.774 7.88743 11.7582 8.54575C11.7556 8.65625 11.7971 8.76324 11.8734 8.84318C11.9498 8.92311 12.0547 8.96945 12.1653 8.97199C12.2758 8.97453 12.3827 8.93307 12.4627 8.85673C12.5426 8.78039 12.589 8.67542 12.5915 8.56491C12.6115 7.70076 12.3332 6.95494 11.7815 6.35995V6.35829C11.2174 5.7533 10.4432 5.43331 9.51155 5.37081L9.49739 5.36914L9.45572 5.36997Z" fill="black"/>
<path d="M9.43668 6.76626C9.38092 6.76134 9.32474 6.76771 9.27149 6.78498C9.21825 6.80225 9.16903 6.83008 9.12677 6.86679C9.08452 6.90351 9.0501 6.94836 9.02556 6.99867C9.00102 7.04898 8.98688 7.10373 8.98396 7.15963C8.98105 7.21553 8.98943 7.27144 9.00861 7.32403C9.02778 7.37662 9.05736 7.42481 9.09557 7.46572C9.13378 7.50663 9.17984 7.53942 9.231 7.56213C9.28216 7.58484 9.33738 7.59701 9.39335 7.59791C9.74167 7.61625 9.96417 7.72124 10.1042 7.86207C10.245 8.00374 10.35 8.23123 10.3692 8.58706C10.3702 8.64297 10.3825 8.69811 10.4053 8.74917C10.4281 8.80024 10.4609 8.84619 10.5019 8.8843C10.5428 8.9224 10.591 8.95187 10.6436 8.97096C10.6961 8.99004 10.752 8.99835 10.8078 8.99538C10.8637 8.99242 10.9184 8.97824 10.9686 8.95369C11.0189 8.92915 11.0637 8.89474 11.1003 8.85252C11.137 8.81029 11.1648 8.76112 11.1821 8.70792C11.1993 8.65473 11.2057 8.5986 11.2008 8.54289C11.1741 8.0429 11.0175 7.60124 10.6967 7.27625C10.3742 6.95126 9.935 6.79293 9.43668 6.76626Z" fill="black"/>
</svg>
