<svg width="102" height="25" viewBox="0 0 102 25" fill="none" xmlns="http://www.w3.org/2000/svg">
<path d="M3.90506 13.1211V2.42115H0V0.156179H10.5437V2.42115H6.61909V13.1211H3.90506ZM10.2304 13.1211V3.51457H12.6125V4.66656C12.8208 4.34114 13.0356 4.08736 13.2568 3.90506C13.4912 3.72283 13.7255 3.5862 13.9598 3.49509C14.2071 3.39092 14.4544 3.32585 14.7017 3.29981C14.949 3.27377 15.2029 3.26078 15.4632 3.26078H15.7951V5.85766C15.5608 5.81856 15.3265 5.79908 15.0922 5.79908C13.5432 5.79908 12.7687 6.57357 12.7687 8.12255V13.1211H10.2304ZM21.8651 8.41544C21.735 8.54565 21.5462 8.64975 21.2989 8.72788C21.0516 8.806 20.6936 8.89063 20.225 8.98174C19.496 9.12486 18.9949 9.30716 18.7216 9.52841C18.4481 9.74973 18.3115 10.0686 18.3115 10.4852C18.3115 11.2011 18.7216 11.5591 19.5416 11.5591C19.8671 11.5591 20.1664 11.507 20.4398 11.4029C20.7262 11.2857 20.967 11.136 21.1622 10.9537C21.3705 10.7585 21.5332 10.5372 21.6503 10.2899C21.7805 10.0296 21.8456 9.75623 21.8456 9.46983L21.8651 8.41544ZM22.0408 13.1211C21.9628 12.8738 21.9107 12.5874 21.8847 12.262C21.5853 12.6004 21.1882 12.8738 20.6936 13.0821C20.199 13.2773 19.6262 13.375 18.9753 13.375C17.8689 13.375 17.0553 13.1341 16.5347 12.6525C16.027 12.1578 15.7732 11.52 15.7732 10.739C15.7732 10.0491 15.8838 9.50237 16.1051 9.09889C16.3264 8.68228 16.6323 8.35686 17.0228 8.12255C17.4133 7.88832 17.8754 7.71908 18.4091 7.61491C18.9559 7.49775 19.5481 7.39366 20.1859 7.30254C20.8238 7.21143 21.2534 7.09428 21.4746 6.95108C21.6959 6.79482 21.8065 6.54753 21.8065 6.20913C21.8065 5.89669 21.6568 5.65589 21.3575 5.48665C21.0711 5.30442 20.6806 5.21331 20.1859 5.21331C19.6002 5.21331 19.1771 5.34345 18.9168 5.6038C18.6695 5.86415 18.5133 6.20913 18.4481 6.63864H16.0856C16.0986 6.14398 16.1767 5.68842 16.3199 5.27189C16.4761 4.85535 16.7169 4.4974 17.0424 4.19794C17.3808 3.89856 17.8169 3.67075 18.3505 3.51457C18.8842 3.34533 19.5351 3.26078 20.3031 3.26078C21.0581 3.26078 21.6959 3.34533 22.2166 3.51457C22.7503 3.68381 23.1734 3.9311 23.4857 4.25652C23.8111 4.56896 24.0455 4.96594 24.1887 5.44762C24.3318 5.91624 24.4034 6.44993 24.4034 7.04868V13.1211H22.0408ZM31.6733 13.1211V7.30254C31.6733 6.56051 31.5496 6.05936 31.3023 5.79908C31.055 5.53873 30.6319 5.40852 30.0332 5.40852C28.7184 5.40852 28.0611 6.14398 28.0611 7.61491V13.1211H25.5228V3.51457H27.9439V4.92042C28.2433 4.37368 28.6404 3.96363 29.135 3.6903C29.6296 3.4039 30.2675 3.26078 31.0485 3.26078C31.5041 3.26078 31.9271 3.33234 32.3176 3.47554C32.7082 3.60568 33.0401 3.80745 33.3134 4.08079C33.5998 4.3542 33.8211 4.69261 33.9773 5.09616C34.1466 5.48665 34.2311 5.94228 34.2311 6.46291V13.1211H31.6733ZM41.1223 6.42388C41.0572 5.95527 40.888 5.62984 40.6146 5.44762C40.3412 5.25234 39.9117 5.15473 39.3259 5.15473C38.8443 5.15473 38.4733 5.2198 38.213 5.34994C37.9526 5.4671 37.8225 5.66887 37.8225 5.95526C37.8225 6.24166 37.9526 6.46291 38.213 6.61909C38.4733 6.76229 38.8638 6.90549 39.3845 7.04868C39.9312 7.20487 40.4519 7.34806 40.9466 7.47828C41.4412 7.59543 41.8772 7.72557 42.2547 7.86877C42.7624 8.07703 43.1529 8.36343 43.4266 8.72788C43.6997 9.07934 43.8362 9.56744 43.8362 10.1923C43.8362 11.1946 43.4781 11.9756 42.7624 12.5353C42.0595 13.0951 41.0181 13.375 39.6383 13.375C38.1544 13.375 37.0154 13.0625 36.2214 12.4377C35.4404 11.8129 35.0368 11.0123 35.0108 10.0361H37.6272C37.6272 10.4917 37.8029 10.8432 38.1544 11.0904C38.5059 11.3378 38.994 11.4615 39.6188 11.4615C40.0744 11.4615 40.4714 11.3898 40.8098 11.2466C41.1483 11.0904 41.3175 10.8301 41.3175 10.4656C41.3175 10.1272 41.1613 9.88637 40.8489 9.74317C40.5495 9.60005 40.1915 9.47632 39.775 9.37223C38.968 9.17695 38.3171 9.00121 37.8225 8.84503C37.3278 8.68885 36.9113 8.50006 36.5728 8.27881C36.1172 7.99241 35.7983 7.66699 35.6161 7.30254C35.4468 6.93802 35.3622 6.54104 35.3622 6.11145C35.3622 5.70797 35.4339 5.33046 35.5771 4.979C35.7203 4.62754 35.9545 4.32816 36.2799 4.08079C36.6054 3.82051 37.0219 3.61874 37.5296 3.47554C38.0503 3.33234 38.6751 3.26078 39.404 3.26078C40.7969 3.26078 41.8186 3.52762 42.4695 4.06131C43.1334 4.595 43.4982 5.38255 43.5631 6.42388H41.1223ZM45.1861 13.1211V5.31091H43.7609V3.51457H45.1861C45.1861 1.17155 46.5465 0 49.2671 0V2.05021C48.9411 2.05021 48.6747 2.07617 48.4665 2.12826C48.271 2.16736 48.115 2.24542 47.9978 2.36257C47.8807 2.47973 47.7956 2.63591 47.7441 2.83119C47.7046 3.01341 47.6852 3.24123 47.6852 3.51457H49.3254V5.31091H47.6852V13.1211H45.1861ZM55.6457 7.3806C55.6323 7.02913 55.5674 6.72326 55.4502 6.46291C55.3465 6.18958 55.2032 5.96825 55.0212 5.79908C54.8383 5.61678 54.6301 5.48665 54.3958 5.40852C54.1615 5.31741 53.9212 5.27189 53.6735 5.27189C53.1661 5.27189 52.7236 5.4606 52.346 5.83811C51.9811 6.20256 51.7729 6.71677 51.7214 7.3806H55.6457ZM51.6431 8.98174C51.6819 9.71063 51.8901 10.2899 52.2677 10.7195C52.6587 11.149 53.1661 11.3638 53.7907 11.3638C54.2071 11.3638 54.5719 11.2727 54.8839 11.0904C55.21 10.8952 55.4181 10.6283 55.5092 10.2899H58.1254C57.8262 11.2792 57.3053 12.0407 56.5636 12.5744C55.8211 13.1081 54.9361 13.375 53.9078 13.375C50.7058 13.375 49.1045 11.6306 49.1045 8.1421C49.1045 7.40015 49.2089 6.72975 49.4171 6.131C49.6253 5.53224 49.9246 5.01803 50.3156 4.58851C50.7185 4.15892 51.2065 3.83349 51.7796 3.61224C52.3527 3.37793 53.0094 3.26078 53.7519 3.26078C55.2353 3.26078 56.3554 3.73589 57.1098 4.68611C57.8784 5.63634 58.2619 7.06824 58.2619 8.98174H51.6431ZM59.1395 13.1211V3.51457H61.5214V4.66656C61.7296 4.34114 61.9445 4.08736 62.1661 3.90506C62.4004 3.72283 62.6347 3.5862 62.869 3.49509C63.116 3.39092 63.363 3.32585 63.6108 3.29981C63.8578 3.27377 64.1122 3.26078 64.3719 3.26078H64.704V5.85766C64.4697 5.81856 64.2353 5.79908 64.001 5.79908C62.4519 5.79908 61.6773 6.57357 61.6773 8.12255V13.1211H59.1395Z" fill="#1F1305"/>
<path d="M69.4609 24.3141C69.4609 23.2386 69.543 22.2332 69.7064 21.298C69.8937 20.3627 70.2325 19.4392 70.7235 18.5273C71.2377 17.6154 71.951 16.6918 72.8629 15.7566C73.7748 14.8214 74.9791 13.816 76.4753 12.7404C77.317 12.1559 78.0065 11.6299 78.5445 11.1622C79.1057 10.6946 79.5497 10.2503 79.8773 9.82948C80.2048 9.40862 80.4384 8.98776 80.5787 8.5669C80.719 8.14604 80.7891 7.6901 80.7891 7.1991C80.7891 6.61459 80.707 6.12359 80.5436 5.72608C80.3802 5.32858 80.1459 5.01293 79.8422 4.77914C79.5616 4.54536 79.2228 4.38164 78.8251 4.28814C78.4274 4.19464 78.0065 4.14785 77.5625 4.14785C76.5104 4.14785 75.6806 4.45178 75.0724 5.05972C74.4643 5.64422 74.1606 6.71981 74.1606 8.28633H69.7766C69.7766 5.76116 70.431 3.79713 71.7406 2.39426C73.0733 0.968035 74.9441 0.254883 77.3521 0.254883C78.5214 0.254883 79.5847 0.395169 80.5436 0.675744C81.5256 0.956318 82.3554 1.37718 83.0337 1.93833C83.7352 2.49948 84.2732 3.21263 84.647 4.07771C85.0448 4.91943 85.2432 5.91316 85.2432 7.05881C85.2432 7.94732 85.1261 8.75397 84.8925 9.47877C84.659 10.2036 84.2732 10.9167 83.7352 11.6181C83.221 12.3196 82.5308 13.0327 81.6659 13.7575C80.8011 14.4823 79.7489 15.289 78.5095 16.1775C77.6207 16.8321 76.873 17.5453 76.2649 18.3169C75.6567 19.0651 75.3299 19.7431 75.2829 20.351H85.3134V24.3141H69.4609ZM94.9178 7.47967L90.1481 15.6865H94.9178V7.47967ZM94.8126 24.3141V19.2287H85.7641V15.2656L94.2515 1.02646H99.372V15.6865H102.002V19.2287H99.372V24.3141H94.8126Z" fill="#F1740C"/>
<path d="M4.67613 24.3148V18.1809H2.4375V16.8825H8.48179V18.1809H6.23197V24.3148H4.67613ZM12.4073 24.3148V20.9008C12.4073 20.483 12.3327 20.1994 12.1834 20.0502C12.0417 19.8935 11.8029 19.8151 11.4671 19.8151C11.288 19.8151 11.1275 19.8524 10.9858 19.927C10.844 19.9942 10.7246 20.0912 10.6276 20.2181C10.5306 20.3375 10.456 20.4792 10.4037 20.6434C10.3589 20.8001 10.3366 20.9717 10.3366 21.1583V24.3148H8.88146V16.793H10.3366V19.5241C10.3888 19.4047 10.4672 19.2928 10.5716 19.1883C10.6836 19.0764 10.8104 18.9831 10.9522 18.9085C11.094 18.8339 11.2507 18.7742 11.4223 18.7294C11.5939 18.6846 11.773 18.6622 11.9596 18.6622C12.5267 18.6622 12.9856 18.8189 13.3363 19.1323C13.6945 19.4383 13.8736 19.8673 13.8736 20.4195V24.3148H12.4073ZM18.1374 21.024C18.13 20.8225 18.0927 20.6471 18.0255 20.4979C17.9658 20.3412 17.8837 20.2143 17.7792 20.1173C17.6748 20.0129 17.5554 19.9382 17.4211 19.8935C17.2868 19.8412 17.1487 19.8151 17.0069 19.8151C16.7159 19.8151 16.4622 19.9233 16.2458 20.1397C16.0369 20.3487 15.9175 20.6434 15.8876 21.024H18.1374ZM15.8428 21.9418C15.8652 22.3597 15.9846 22.6917 16.201 22.938C16.4249 23.1842 16.7159 23.3074 17.0741 23.3074C17.3129 23.3074 17.5218 23.2551 17.7009 23.1507C17.8874 23.0387 18.0068 22.8858 18.0591 22.6917H19.559C19.3873 23.2589 19.0888 23.6954 18.6635 24.0013C18.2382 24.3073 17.7307 24.4603 17.1412 24.4603C15.3056 24.4603 14.3877 23.4603 14.3877 21.4605C14.3877 21.0352 14.4474 20.6509 14.5668 20.3076C14.6862 19.9644 14.8578 19.6696 15.0817 19.4234C15.313 19.1771 15.5929 18.9906 15.9212 18.8637C16.2495 18.7294 16.6264 18.6622 17.0517 18.6622C17.9024 18.6622 18.5441 18.9346 18.9769 19.4793C19.4172 20.0241 19.6373 20.8449 19.6373 21.9418H15.8428ZM23.4533 20.4755C23.416 20.2069 23.319 20.0203 23.1623 19.9159C23.0056 19.8039 22.7594 19.748 22.4236 19.748C22.1475 19.748 21.9348 19.7853 21.7856 19.8599C21.6363 19.927 21.5617 20.0427 21.5617 20.2069C21.5617 20.371 21.6363 20.4979 21.7856 20.5874C21.9348 20.6695 22.1587 20.7516 22.4572 20.8337C22.7706 20.9232 23.069 21.0053 23.3526 21.0799C23.6362 21.1471 23.8861 21.2217 24.1025 21.3038C24.3936 21.4232 24.6174 21.5874 24.7741 21.7963C24.9308 21.9978 25.0092 22.2776 25.0092 22.6358C25.0092 23.2104 24.804 23.6581 24.3936 23.979C23.9906 24.2998 23.3936 24.4603 22.6027 24.4603C21.752 24.4603 21.0991 24.2812 20.6439 23.923C20.1961 23.5648 19.9648 23.1059 19.9499 22.5462H21.4498C21.4498 22.8074 21.5505 23.0089 21.752 23.1507C21.9535 23.2924 22.2333 23.3633 22.5915 23.3633C22.8526 23.3633 23.0802 23.3223 23.2742 23.2402C23.4683 23.1507 23.5653 23.0014 23.5653 22.7925C23.5653 22.5985 23.4757 22.4604 23.2966 22.3783C23.125 22.2963 22.9198 22.2254 22.681 22.1657C22.2184 22.0537 21.8453 21.953 21.5617 21.8635C21.2781 21.7739 21.0394 21.6657 20.8453 21.5389C20.5842 21.3747 20.4013 21.1881 20.2969 20.9792C20.1999 20.7703 20.1514 20.5427 20.1514 20.2964C20.1514 20.0651 20.1924 19.8487 20.2745 19.6472C20.3566 19.4457 20.4909 19.2741 20.6774 19.1323C20.864 18.9831 21.1028 18.8674 21.3938 18.7853C21.6923 18.7033 22.0505 18.6622 22.4683 18.6622C23.2668 18.6622 23.8526 18.8152 24.2257 19.1211C24.6062 19.4271 24.8152 19.8785 24.8525 20.4755H23.4533ZM28.7329 20.4755C28.6956 20.2069 28.5986 20.0203 28.4419 19.9159C28.2852 19.8039 28.0389 19.748 27.7031 19.748C27.4271 19.748 27.2144 19.7853 27.0651 19.8599C26.9159 19.927 26.8413 20.0427 26.8413 20.2069C26.8413 20.371 26.9159 20.4979 27.0651 20.5874C27.2144 20.6695 27.4382 20.7516 27.7367 20.8337C28.0501 20.9232 28.3486 21.0053 28.6322 21.0799C28.9157 21.1471 29.1657 21.2217 29.3821 21.3038C29.6731 21.4232 29.897 21.5874 30.0537 21.7963C30.2104 21.9978 30.2888 22.2776 30.2888 22.6358C30.2888 23.2104 30.0836 23.6581 29.6731 23.979C29.2702 24.2998 28.6732 24.4603 27.8822 24.4603C27.0316 24.4603 26.3786 24.2812 25.9234 23.923C25.4757 23.5648 25.2444 23.1059 25.2295 22.5462H26.7293C26.7293 22.8074 26.8301 23.0089 27.0316 23.1507C27.233 23.2924 27.5129 23.3633 27.871 23.3633C28.1322 23.3633 28.3598 23.3223 28.5538 23.2402C28.7478 23.1507 28.8448 23.0014 28.8448 22.7925C28.8448 22.5985 28.7553 22.4604 28.5762 22.3783C28.4046 22.2963 28.1994 22.2254 27.9606 22.1657C27.4979 22.0537 27.1248 21.953 26.8413 21.8635C26.5577 21.7739 26.3189 21.6657 26.1249 21.5389C25.8637 21.3747 25.6809 21.1881 25.5765 20.9792C25.4794 20.7703 25.4309 20.5427 25.4309 20.2964C25.4309 20.0651 25.472 19.8487 25.5541 19.6472C25.6362 19.4457 25.7705 19.2741 25.957 19.1323C26.1436 18.9831 26.3824 18.8674 26.6734 18.7853C26.9719 18.7033 27.33 18.6622 27.7479 18.6622C28.5464 18.6622 29.1321 18.8152 29.5052 19.1211C29.8858 19.4271 30.0947 19.8785 30.1321 20.4755H28.7329ZM34.0461 21.6172C33.9714 21.6918 33.8633 21.7515 33.7215 21.7963C33.5797 21.8411 33.3745 21.8896 33.1058 21.9418C32.688 22.0239 32.4007 22.1284 32.244 22.2552C32.0873 22.3821 32.0089 22.5649 32.0089 22.8037C32.0089 23.2141 32.244 23.4193 32.7141 23.4193C32.9006 23.4193 33.0723 23.3895 33.229 23.3298C33.3931 23.2626 33.5312 23.1768 33.6431 23.0723C33.7625 22.9604 33.8558 22.8335 33.9229 22.6917C33.9976 22.5425 34.0349 22.3858 34.0349 22.2216L34.0461 21.6172ZM34.1468 24.3148C34.102 24.173 34.0722 24.0088 34.0573 23.8223C33.8856 24.0163 33.658 24.173 33.3745 24.2924C33.0909 24.4043 32.7626 24.4603 32.3895 24.4603C31.7552 24.4603 31.2888 24.3222 30.9903 24.0461C30.6993 23.7626 30.5538 23.3969 30.5538 22.9492C30.5538 22.5537 30.6172 22.2403 30.7441 22.009C30.8709 21.7702 31.0463 21.5836 31.2702 21.4493C31.494 21.315 31.7589 21.218 32.0649 21.1583C32.3783 21.0911 32.7178 21.0314 33.0835 20.9792C33.4491 20.927 33.6953 20.8598 33.8222 20.7777C33.9491 20.6882 34.0125 20.5464 34.0125 20.3524C34.0125 20.1733 33.9267 20.0352 33.755 19.9382C33.5909 19.8338 33.367 19.7815 33.0835 19.7815C32.7477 19.7815 32.5051 19.8562 32.3559 20.0054C32.2141 20.1546 32.1246 20.3524 32.0873 20.5986H30.7329C30.7404 20.3151 30.7851 20.0539 30.8672 19.8151C30.9568 19.5763 31.0948 19.3711 31.2814 19.1995C31.4754 19.0279 31.7254 18.8973 32.0313 18.8077C32.3373 18.7107 32.7104 18.6622 33.1506 18.6622C33.5834 18.6622 33.9491 18.7107 34.2475 18.8077C34.5535 18.9047 34.796 19.0465 34.9751 19.2331C35.1617 19.4122 35.296 19.6398 35.3781 19.9159C35.4601 20.1845 35.5012 20.4904 35.5012 20.8337V24.3148H34.1468ZM36.1428 24.3148V16.793H37.5979V24.3148H36.1428ZM40.9175 23.2402C41.8055 23.2402 42.2495 22.6806 42.2495 21.5612C42.2495 20.4494 41.8055 19.8935 40.9175 19.8935C40.0295 19.8935 39.5855 20.4494 39.5855 21.5612C39.5855 22.6806 40.0295 23.2402 40.9175 23.2402ZM40.9175 24.4603C40.4698 24.4603 40.0706 24.3894 39.7199 24.2476C39.3691 24.1058 39.0707 23.9081 38.8244 23.6544C38.5856 23.4006 38.4028 23.0947 38.276 22.7365C38.1491 22.3783 38.0857 21.9866 38.0857 21.5612C38.0857 21.1284 38.1491 20.733 38.276 20.3748C38.4103 20.0166 38.6006 19.7106 38.8468 19.4569C39.0931 19.2032 39.3878 19.0092 39.7311 18.8749C40.0818 18.7331 40.4773 18.6622 40.9175 18.6622C41.3503 18.6622 41.7384 18.7331 42.0816 18.8749C42.4249 19.0092 42.7159 19.2032 42.9547 19.4569C43.2009 19.7032 43.3875 20.0054 43.5143 20.3636C43.6487 20.7218 43.7158 21.121 43.7158 21.5612C43.7158 22.0015 43.6487 22.4007 43.5143 22.7589C43.3875 23.1096 43.2009 23.4118 42.9547 23.6655C42.7159 23.9193 42.4211 24.117 42.0704 24.2588C41.7272 24.3931 41.3429 24.4603 40.9175 24.4603ZM47.7685 24.3148V20.9792C47.7685 20.5539 47.6976 20.2666 47.5558 20.1173C47.414 19.9681 47.1715 19.8935 46.8282 19.8935C46.0746 19.8935 45.6977 20.3151 45.6977 21.1583V24.3148H44.2426V18.8077H45.6306V19.6136C45.8022 19.3002 46.0298 19.0652 46.3134 18.9085C46.5969 18.7443 46.9626 18.6622 47.4103 18.6622C47.6715 18.6622 47.914 18.7033 48.1378 18.7853C48.3617 18.86 48.552 18.9756 48.7087 19.1323C48.8729 19.289 48.9997 19.4831 49.0893 19.7144C49.1863 19.9382 49.2348 20.1994 49.2348 20.4979V24.3148H47.7685ZM49.9056 24.3148V18.8077H51.3607V24.3148H49.9056ZM49.9056 18.1473V16.793H51.3607V18.1473H49.9056ZM55.4059 24.3148L54.1971 21.8411L53.4919 22.5686V24.3148H52.0256V16.793H53.4919V20.9008L55.3052 18.8077H57.0849L55.238 20.8337L57.0401 24.3148H55.4059ZM57.4699 24.3148V18.8077H58.925V24.3148H57.4699ZM57.4699 18.1473V16.793H58.925V18.1473H57.4699Z" fill="#1F1305"/>
</svg>
