<svg width="440" height="40" viewBox="0 0 440 40" fill="none" xmlns="http://www.w3.org/2000/svg">
<circle opacity="0.25" cx="220" cy="20" r="20" transform="rotate(-90 220 20)" fill="#FFCC19"/>
<circle opacity="0.5" cx="220" cy="20" r="14" transform="rotate(-90 220 20)" fill="#FFCC19"/>
<circle cx="220" cy="20" r="6" transform="rotate(-90 220 20)" fill="#FFCC19"/>
<line opacity="0.6" x1="240" y1="19.5" x2="400" y2="19.5" stroke="#1F1305" stroke-dasharray="4 4"/>
<circle opacity="0.25" cx="20" cy="20" r="20" transform="rotate(-90 20 20)" fill="#F1740C"/>
<circle opacity="0.5" cx="20" cy="20" r="14" transform="rotate(-90 20 20)" fill="#F1740C"/>
<circle cx="20" cy="20" r="6" transform="rotate(-90 20 20)" fill="#F1740C"/>
<line opacity="0.6" x1="40" y1="19.5" x2="200" y2="19.5" stroke="#1F1305" stroke-dasharray="4 4"/>
<circle opacity="0.25" cx="420" cy="20" r="20" transform="rotate(-90 420 20)" fill="#F1740C"/>
<circle opacity="0.5" cx="420" cy="20" r="14" transform="rotate(-90 420 20)" fill="#F1740C"/>
<circle cx="420" cy="20" r="6" transform="rotate(-90 420 20)" fill="#F1740C"/>
</svg>
