<svg width="138" height="107" viewBox="0 0 138 107" fill="none" xmlns="http://www.w3.org/2000/svg">
<g clip-path="url(#clip0_4943_1769)">
<path d="M25.088 106.468V99.3866C25.088 96.6712 23.4309 94.9012 20.5906 94.9012C19.1707 94.9012 17.6322 95.3732 16.567 96.9078C15.739 95.6093 14.5558 94.9012 12.7806 94.9012C11.5968 94.9012 10.4141 95.255 9.46701 96.5535V95.1372H6.98193V106.468H9.46701V100.212C9.46701 98.2063 10.5322 97.2616 12.1893 97.2616C13.8453 97.2616 14.6744 98.3241 14.6744 100.212V106.468H17.1594V100.212C17.1594 98.2063 18.3421 97.2616 19.8806 97.2616C21.5377 97.2616 22.3657 98.3241 22.3657 100.212V106.468H25.088ZM61.8903 95.1372H57.8673V91.7143H55.3822V95.1372H53.1338V97.3794H55.3817V102.573C55.3817 105.17 56.4468 106.704 59.2872 106.704C60.3524 106.704 61.5351 106.351 62.3641 105.879L61.6537 103.754C60.9437 104.226 60.1157 104.344 59.5238 104.344C58.3406 104.344 57.8673 103.636 57.8673 102.455V97.3794H61.8903V95.1372ZM82.9547 94.9006C81.5348 94.9006 80.5882 95.6093 79.9963 96.5535V95.1372H77.5113V106.468H79.9963V100.095C79.9963 98.2063 80.8243 97.1439 82.3628 97.1439C82.8361 97.1439 83.428 97.2622 83.9013 97.3799L84.6113 95.0195C84.138 94.9012 83.428 94.9012 82.9547 94.9012M51.122 96.0819C49.9382 95.2555 48.2817 94.9017 46.5065 94.9017C43.6668 94.9017 41.7736 96.318 41.7736 98.5607C41.7736 100.45 43.1935 101.512 45.6785 101.866L46.8618 101.984C48.1636 102.22 48.8736 102.574 48.8736 103.164C48.8736 103.99 47.927 104.581 46.2699 104.581C44.6128 104.581 43.3115 103.99 42.483 103.4L41.2997 105.289C42.6016 106.233 44.3767 106.705 46.1513 106.705C49.4649 106.705 51.3586 105.171 51.3586 103.046C51.3586 101.039 49.8201 99.9769 47.4531 99.6231L46.2699 99.5048C45.2047 99.3866 44.3767 99.1511 44.3767 98.4429C44.3767 97.6165 45.2047 97.1444 46.5065 97.1444C47.927 97.1444 49.3469 97.7342 50.0568 98.0886L51.122 96.0819ZM117.154 94.9017C115.734 94.9017 114.787 95.6098 114.196 96.554V95.1377H111.71V106.469H114.196V100.095C114.196 98.2069 115.024 97.1444 116.562 97.1444C117.036 97.1444 117.628 97.2627 118.101 97.3804L118.811 95.02C118.338 94.9017 117.628 94.9017 117.154 94.9017ZM85.4398 100.803C85.4398 104.226 87.8063 106.705 91.4751 106.705C93.1317 106.705 94.3149 106.351 95.4982 105.407L94.3149 103.4C93.3683 104.109 92.4217 104.462 91.3565 104.462C89.3448 104.462 87.9249 103.046 87.9249 100.803C87.9249 98.679 89.3448 97.2622 91.3565 97.1444C92.4217 97.1444 93.3683 97.4982 94.3149 98.2069L95.4982 96.2002C94.3149 95.2555 93.1317 94.9017 91.4751 94.9017C87.8063 94.9017 85.4398 97.3804 85.4398 100.803ZM108.397 100.803V95.1377H105.912V96.554C105.084 95.4921 103.901 94.9017 102.362 94.9017C99.167 94.9017 96.6819 97.3804 96.6819 100.803C96.6819 104.226 99.167 106.705 102.362 106.705C104.019 106.705 105.202 106.115 105.912 105.053V106.469H108.397V100.803ZM99.2851 100.803C99.2851 98.7967 100.587 97.1444 102.717 97.1444C104.729 97.1444 106.149 98.679 106.149 100.803C106.149 102.81 104.729 104.462 102.717 104.462C100.587 104.344 99.2851 102.81 99.2851 100.803ZM69.5827 94.9017C66.2691 94.9017 63.9021 97.2622 63.9021 100.803C63.9021 104.345 66.2686 106.705 69.7008 106.705C71.3573 106.705 73.0144 106.233 74.3162 105.171L73.1325 103.4C72.1859 104.109 71.0026 104.581 69.8194 104.581C68.2809 104.581 66.7424 103.872 66.3872 101.865H74.7895V100.922C74.9081 97.2622 72.7783 94.9017 69.5827 94.9017ZM69.5822 97.0261C71.1201 97.0261 72.1859 97.9708 72.422 99.7414H66.5052C66.7419 98.2069 67.8071 97.0261 69.5822 97.0261ZM131.236 100.803V90.6523H128.751V96.554C127.922 95.4921 126.739 94.9017 125.2 94.9017C122.005 94.9017 119.52 97.3804 119.52 100.803C119.52 104.226 122.005 106.705 125.2 106.705C126.858 106.705 128.041 106.115 128.751 105.053V106.469H131.236V100.803ZM122.124 100.803C122.124 98.7967 123.425 97.1444 125.556 97.1444C127.568 97.1444 128.987 98.679 128.987 100.803C128.987 102.81 127.568 104.462 125.556 104.462C123.425 104.344 122.124 102.81 122.124 100.803ZM39.0508 100.803V95.1377H36.5657V96.554C35.7371 95.4921 34.5539 94.9017 33.0154 94.9017C29.8204 94.9017 27.3353 97.3804 27.3353 100.803C27.3353 104.226 29.8204 106.705 33.0154 106.705C34.6725 106.705 35.8557 106.115 36.5657 105.053V106.469H39.0508V100.803ZM29.8204 100.803C29.8204 98.7967 31.1222 97.1444 33.2521 97.1444C35.2638 97.1444 36.6843 98.679 36.6843 100.803C36.6843 102.81 35.2638 104.462 33.2521 104.462C31.1222 104.344 29.8204 102.81 29.8204 100.803Z" fill="black"/>
<path d="M50.2935 9.08887H87.5696V75.8972H50.2935V9.08887Z" fill="#FF5F00"/>
<path d="M52.6605 42.493C52.6605 28.919 59.0505 16.8791 68.8722 9.08855C61.6542 3.42292 52.5424 0 42.6021 0C19.0521 0 0 19.0035 0 42.493C0 65.9824 19.0521 84.986 42.6016 84.986C52.5419 84.986 61.6537 81.563 68.8722 75.8969C59.0505 68.2246 52.6605 56.0669 52.6605 42.493Z" fill="#EB001B"/>
<path d="M137.863 42.493C137.863 65.9819 118.811 84.986 95.2614 84.986C85.3211 84.986 76.2093 81.563 68.9907 75.8969C78.931 68.1068 85.203 56.0669 85.203 42.493C85.203 28.919 78.8124 16.8791 68.9907 9.08855C76.2088 3.42292 85.3211 0 95.2614 0C118.811 0 137.863 19.1218 137.863 42.493Z" fill="#F79E1B"/>
</g>
<defs>
<clipPath id="clip0_4943_1769">
<rect width="138" height="107" fill="white"/>
</clipPath>
</defs>
</svg>
