<svg width="131" height="42" viewBox="0 0 131 42" fill="none" xmlns="http://www.w3.org/2000/svg">
<g clip-path="url(#clip0_4943_1774)">
<path d="M67.75 13.3732C67.6753 19.2006 73.0018 22.4523 77.0142 24.3858C81.1366 26.3695 82.5213 27.6416 82.5049 29.4157C82.4742 32.1305 79.2166 33.3288 76.1683 33.3754C70.85 33.4568 67.7577 31.9555 65.2994 30.8199L63.3835 39.685C65.85 40.8089 70.4171 41.789 75.1531 41.832C86.2702 41.832 93.5432 36.4054 93.5826 27.9918C93.6261 17.3136 78.6466 16.7226 78.7489 11.9498C78.7842 10.5026 80.1807 8.95818 83.2408 8.5655C84.7555 8.36714 88.9367 8.21533 93.6773 10.374L95.5379 1.79692C92.9885 0.878995 89.712 2.94834e-05 85.6326 2.94834e-05C75.1689 2.94834e-05 67.8094 5.50051 67.75 13.3732ZM113.416 0.738824C111.386 0.738824 109.676 1.90976 108.912 3.70665L93.032 41.202H104.141L106.352 35.1606H119.926L121.209 41.202H131L122.456 0.738824H113.416ZM114.97 11.6695L118.176 26.8638H109.396L114.97 11.6695ZM54.2811 0.73933L45.5245 41.2015H56.1105L64.8629 0.738318L54.2811 0.73933ZM38.6209 0.73933L27.6026 28.2797L23.1456 4.86242C22.6226 2.2483 20.5573 0.738824 18.2638 0.738824H0.252277L0 1.91381C3.69768 2.70726 7.89889 3.98699 10.4442 5.35629C12.0019 6.19275 12.446 6.92396 12.9577 8.91162L21.3996 41.202H32.5863L49.737 0.738824L38.6209 0.73933Z" fill="url(#paint0_linear_4943_1774)"/>
</g>
<defs>
<linearGradient id="paint0_linear_4943_1774" x1="6022.59" y1="125.747" x2="6142.33" y2="-4170.54" gradientUnits="userSpaceOnUse">
<stop stop-color="#222357"/>
<stop offset="1" stop-color="#254AA5"/>
</linearGradient>
<clipPath id="clip0_4943_1774">
<rect width="131" height="42" fill="white"/>
</clipPath>
</defs>
</svg>
