<svg width="138" height="108" viewBox="0 0 138 108" fill="none" xmlns="http://www.w3.org/2000/svg">
<g clip-path="url(#clip0_4943_1776)">
<path d="M87.6575 76.6934H50.3425V9.17871H87.6575V76.6934Z" fill="#6C6BBD"/>
<path d="M52.7111 42.9379C52.7111 29.2419 59.0802 17.0423 68.9989 9.18054C61.7458 3.43158 52.5909 0 42.6431 0C19.0914 0 0 19.2235 0 42.9379C0 66.6517 19.0914 85.8752 42.6431 85.8752C52.5915 85.8752 61.7458 82.4436 68.9989 76.6947C59.0802 68.8329 52.7111 56.6332 52.7111 42.9379Z" fill="#D32011"/>
<path d="M138 42.9379C138 66.6517 118.908 85.8752 95.3568 85.8752C85.4084 85.8752 76.2541 82.4436 68.9983 76.6947C78.9197 68.8329 85.2888 56.6332 85.2888 42.9379C85.2888 29.2419 78.9197 17.0423 68.9983 9.18054C76.2541 3.43158 85.409 0 95.3568 0C118.908 0 138 19.2235 138 42.9379Z" fill="#0099DF"/>
<path d="M100.283 95.7708C100.779 95.7708 101.493 95.8663 102.038 96.0818L101.279 98.4187C100.758 98.2032 100.237 98.1321 99.7384 98.1321C98.1277 98.1321 97.3223 99.1801 97.3223 101.064V107.457H94.8578V96.0573H97.2981V97.4413C97.938 96.4394 98.8624 95.7708 100.283 95.7708ZM91.1781 98.3232H87.1513V103.474C87.1513 104.618 87.5529 105.382 88.7868 105.382C89.4267 105.382 90.2315 105.167 90.9641 104.738L91.674 106.86C90.8935 107.408 89.6623 107.744 88.5965 107.744C85.6818 107.744 84.6652 106.169 84.6652 103.521V98.3232H82.3661V96.0573H84.6652V92.5986H87.1513V96.0573H91.1781V98.3232ZM59.6462 100.756C59.9093 99.1096 60.9022 97.9878 62.6563 97.9878C64.2422 97.9878 65.2616 98.9891 65.522 100.756H59.6462ZM68.082 101.757C68.0572 98.2027 65.8772 95.7708 62.7021 95.7708C59.3864 95.7708 57.0652 98.2032 57.0652 101.757C57.0652 105.38 59.4812 107.741 62.8703 107.741C64.5759 107.741 66.1376 107.312 67.5122 106.144L66.3031 104.307C65.357 105.071 64.1474 105.5 63.0116 105.5C61.4251 105.5 59.9799 104.76 59.6246 102.71H68.0329C68.0572 102.399 68.082 102.09 68.082 101.757ZM78.9058 98.9674C78.2196 98.5359 76.8229 97.9872 75.3776 97.9872C74.0273 97.9872 73.2219 98.4898 73.2219 99.325C73.2219 100.086 74.0737 100.302 75.1394 100.444L76.3 100.611C78.7646 100.971 80.2556 102.02 80.2556 104.023C80.2556 106.193 78.3603 107.744 75.093 107.744C73.244 107.744 71.5384 107.266 70.1876 106.264L71.3487 104.332C72.1783 104.976 73.4122 105.524 75.1173 105.524C76.7986 105.524 77.6988 105.025 77.6988 104.141C77.6988 103.499 77.059 103.139 75.7086 102.95L74.548 102.784C72.0128 102.423 70.6382 101.279 70.6382 99.4205C70.6382 97.1547 72.4872 95.7708 75.3534 95.7708C77.1539 95.7708 78.7888 96.1778 79.971 96.9637L78.9058 98.9674ZM109.287 98.1262C108.781 98.1262 108.312 98.2168 107.875 98.3943C107.453 98.5666 107.069 98.8228 106.747 99.1476C106.423 99.4799 106.168 99.8745 105.999 100.308C105.817 100.759 105.727 101.255 105.727 101.795C105.727 102.339 105.817 102.833 105.999 103.283C106.18 103.734 106.43 104.121 106.747 104.443C107.069 104.768 107.453 105.024 107.875 105.197C108.312 105.377 108.781 105.464 109.287 105.464C109.794 105.464 110.266 105.377 110.7 105.197C111.124 105.025 111.51 104.769 111.833 104.443C112.156 104.122 112.406 103.733 112.59 103.283C112.772 102.833 112.861 102.339 112.861 101.795C112.862 101.255 112.771 100.759 112.59 100.308C112.406 99.8574 112.156 99.4699 111.833 99.1476C111.51 98.8222 111.124 98.566 110.7 98.3943C110.251 98.2135 109.771 98.1226 109.288 98.1267M109.288 95.7713C110.167 95.771 110.98 95.9247 111.728 96.2326C112.477 96.5387 113.124 96.961 113.67 97.4993C114.219 98.0418 114.655 98.6895 114.952 99.4043C115.261 100.139 115.416 100.936 115.416 101.796C115.416 102.656 115.261 103.453 114.952 104.187C114.656 104.903 114.219 105.552 113.669 106.095C113.125 106.633 112.476 107.054 111.729 107.362C110.98 107.668 110.166 107.821 109.288 107.821C108.409 107.821 107.596 107.668 106.848 107.362C106.099 107.054 105.457 106.633 104.914 106.095C104.368 105.551 103.933 104.902 103.637 104.187C103.328 103.453 103.173 102.656 103.173 101.796C103.173 100.936 103.328 100.139 103.637 99.4048C103.934 98.691 104.368 98.0434 104.914 97.4993C105.469 96.9527 106.126 96.5222 106.848 96.2326C107.596 95.9247 108.409 95.771 109.288 95.7713ZM45.2543 101.757C45.2543 99.7538 46.5588 98.1077 48.6897 98.1077C50.7263 98.1077 52.1009 99.6827 52.1009 101.757C52.1009 103.832 50.7263 105.404 48.6897 105.404C46.5588 105.404 45.2543 103.761 45.2543 101.757ZM54.4221 101.757V96.0579H51.9597V97.4418C51.1764 96.4155 49.9943 95.7713 48.3836 95.7713C45.2085 95.7713 42.7218 98.2743 42.7218 101.757C42.7218 105.238 45.2085 107.744 48.3836 107.744C49.9943 107.744 51.1759 107.1 51.9597 106.074V107.458H54.4221V101.757ZM40.5413 107.458V100.303C40.5413 97.6084 38.8357 95.7958 36.0892 95.7713C34.6439 95.7469 33.1497 96.2001 32.1087 97.7995C31.3276 96.5355 30.0942 95.7713 28.3644 95.7713C27.1574 95.7713 25.9726 96.129 25.0481 97.4635V96.0579H22.5862V107.458H25.0723V101.138C25.0723 99.159 26.1623 98.1083 27.8431 98.1083C29.4786 98.1083 30.3083 99.1807 30.3083 101.114V107.458H32.7949V101.138C32.7949 99.1584 33.9334 98.1077 35.5657 98.1077C37.2498 98.1077 38.0551 99.1801 38.0551 101.113V107.458H40.5413Z" fill="#110F0D"/>
</g>
<defs>
<clipPath id="clip0_4943_1776">
<rect width="138" height="108" fill="white"/>
</clipPath>
</defs>
</svg>
