<svg width="137" height="91" viewBox="0 0 137 91" fill="none" xmlns="http://www.w3.org/2000/svg">
<g clip-path="url(#clip0_4943_1781)">
<path d="M127.867 90.9993H9.13333C6.71102 90.9993 4.38792 90.0405 2.67509 88.3339C0.962259 86.6273 0 84.3127 0 81.8993L0 43.6186H6.57981L8.06397 40.0393H11.3862L12.8666 43.6034H25.8131V40.8924L26.97 43.6224H33.6906L34.8475 40.8469V43.6148H67.0158V37.7605H67.6247C68.0586 37.7756 68.1841 37.8135 68.1841 38.534V43.6224H84.8258V42.2612C86.5269 43.1219 88.5324 43.6262 90.6597 43.6262L91.0213 43.6224H91.0023H98.0045L99.5039 40.0582H102.826L104.291 43.6224H117.786V40.2326L119.826 43.6224H130.618V21.2364H119.936V23.8792L118.44 21.2364H107.457V23.8792L106.084 21.2364H91.2534C89.0069 21.1283 86.7694 21.5887 84.7497 22.5748L84.8296 22.5407V21.2364H74.6003V22.5407C73.3616 21.5694 71.7982 21.1044 70.2277 21.2402H70.2506H32.8686L30.3607 27.0225L27.7844 21.2402H16.01V23.883L14.7123 21.2402H4.66561L0.0114167 31.8568V9.10684C0.0114167 6.69337 0.973676 4.37875 2.68651 2.67216C4.39934 0.965583 6.72244 0.00683594 9.14475 0.00683594H127.878C130.3 0.00683594 132.623 0.965583 134.336 2.67216C136.049 4.37875 137.011 6.69337 137.011 9.10684V48.8435H129.884C129.764 48.8385 129.636 48.8359 129.499 48.8359C127.848 48.8359 126.314 49.3288 125.035 50.1744L125.066 50.1554V48.8435H114.524C112.877 48.7519 111.248 49.2183 109.901 50.1668L109.923 50.1516V48.8397H91.1012V50.1516C89.5592 49.2886 87.8198 48.8367 86.0512 48.8397H85.9028H85.9104H73.4929V50.1516C71.8709 49.1154 69.9455 48.6545 68.0281 48.8435L68.0624 48.8397H54.1683L50.9868 52.2674L48.0109 48.8397H27.2554V71.2409H47.6227L50.8993 67.7601L53.9856 71.2409H66.5401V65.997H68.2907C69.9741 66.0656 71.6535 65.7854 73.2227 65.1742L73.139 65.2045V71.2485H83.4901V65.4131H83.9886C84.6203 65.4131 84.685 65.4358 84.685 66.0728V71.2522H116.142L116.526 71.2598C118.33 71.2598 120.012 70.7214 121.412 69.8L121.378 69.819V71.2522H131.356L131.832 71.2598C133.701 71.2598 135.478 70.8769 137.091 70.183L137.004 70.2171V81.903C137.004 84.3165 136.042 86.6311 134.329 88.3377C132.616 90.0443 130.293 91.003 127.87 91.003L127.867 90.9993ZM80.3162 68.1014H76.4422V52.0437H85.332C86.9375 51.8954 88.5542 52.1645 90.0242 52.8248L89.9633 52.802C91.1545 53.4542 91.9498 54.6978 91.9498 56.1235L91.9422 56.3775V56.3662L91.946 56.5103C91.946 58.353 90.831 59.9379 89.2327 60.628L89.2022 60.6394C89.9671 60.9124 90.6065 61.3788 91.0822 61.9816L91.0898 61.9892C91.626 62.8758 91.8509 63.9149 91.7291 64.9429L91.7329 64.9202V68.0976H87.8665V66.088C88.0538 64.9938 87.8332 63.8692 87.2462 62.9258L87.2576 62.9447C86.8559 62.6409 86.3965 62.4214 85.9072 62.2996C85.418 62.1777 84.909 62.1559 84.411 62.2357L84.4339 62.2319H80.3162V68.0976V68.1014ZM80.3162 55.3614V58.9673H84.9971C85.6581 59.0281 86.3233 58.9102 86.9227 58.626L86.8999 58.6374C87.1445 58.4796 87.3457 58.2634 87.4853 58.0085C87.6248 57.7536 87.6983 57.468 87.699 57.1776L87.6952 57.0904C87.7164 56.8002 87.6535 56.5139 87.5138 56.2585C87.3741 56.003 87.1636 55.7929 86.9075 55.6533L86.8999 55.6495C86.3207 55.3976 85.6877 55.2934 85.058 55.3462H85.0732L80.3162 55.3614ZM45.9711 68.0976H30.7223V52.0437H46.2109L50.9488 57.3065L55.8465 52.0437H68.1499C72.5187 52.0437 74.6422 53.7765 74.6422 57.3331C74.6422 60.9541 72.4464 62.7134 67.9444 62.7134H63.1304V68.0938H55.6448L50.9031 62.7892L45.9711 68.0976ZM59.2944 53.7651L53.3805 60.0972L59.2944 66.634V53.7651ZM34.5621 61.557V64.7495H44.0303L48.4067 60.0403L44.1977 55.3614H34.5583V58.281H43.0142V61.5532L34.5621 61.557ZM63.1304 55.3652V59.4526H68.1042C69.6264 59.4526 70.5017 58.6791 70.5017 57.3293C70.5017 56.0401 69.6873 55.3614 68.1461 55.3614L63.1304 55.3652ZM131.775 68.1052H124.339V64.6548H131.745C132.299 64.7305 132.86 64.5861 133.309 64.2528L133.305 64.2566C133.448 64.1248 133.562 63.9647 133.64 63.7865C133.718 63.6083 133.758 63.4159 133.758 63.2215V63.1608C133.757 62.969 133.715 62.7795 133.635 62.6054C133.554 62.4313 133.436 62.2767 133.29 62.1523C132.898 61.8642 132.41 61.7366 131.927 61.7958H131.935L131.223 61.7731C127.745 61.6821 123.806 61.5759 123.806 56.825C123.806 54.512 125.26 52.0437 129.328 52.0437H137.004V55.4638H129.983C129.44 55.405 128.893 55.5135 128.415 55.7747L128.43 55.7671C128.242 55.8906 128.091 56.062 127.993 56.2634C127.895 56.4648 127.852 56.6889 127.87 56.9122V56.9084V56.9501C127.87 57.2056 127.951 57.4545 128.102 57.6615C128.252 57.8685 128.464 58.0229 128.708 58.1028L128.715 58.1065C129.197 58.2564 129.703 58.318 130.207 58.2885H130.196L132.285 58.3416C133.86 58.1838 135.434 58.6511 136.665 59.6422L136.654 59.6346C136.768 59.7256 136.868 59.8254 136.954 59.9341L136.958 59.9379L137.004 66.0501C136.363 66.7944 135.549 67.3707 134.633 67.7283C133.716 68.086 132.726 68.2141 131.748 68.1014L131.775 68.1052ZM116.747 68.1052H109.242V64.6548H116.709C117.267 64.7265 117.832 64.5827 118.288 64.2528L118.28 64.2566C118.423 64.1244 118.537 63.9642 118.614 63.786C118.691 63.6078 118.731 63.4156 118.73 63.2215V63.1836C118.73 62.9883 118.689 62.7952 118.608 62.6173C118.527 62.4394 118.409 62.2808 118.261 62.1523C117.86 61.8697 117.369 61.743 116.88 61.7958H116.888L116.18 61.7731C112.713 61.6821 108.778 61.5759 108.778 56.825C108.778 54.512 110.224 52.0437 114.285 52.0437H122.002V55.4638H114.939C114.401 55.4074 113.858 55.5158 113.383 55.7747L113.398 55.7671C113.198 55.9042 113.039 56.0925 112.938 56.3122C112.836 56.5318 112.796 56.7747 112.822 57.0151C112.848 57.2555 112.938 57.4846 113.084 57.678C113.229 57.8715 113.425 58.0221 113.649 58.1141L113.657 58.1179C114.145 58.2701 114.657 58.3317 115.168 58.2999H115.156L117.23 58.353C118.814 58.1973 120.396 58.6655 121.637 59.6573L121.626 59.646C122.044 60.1049 122.363 60.6456 122.561 61.2337C122.758 61.8219 122.831 62.4445 122.775 63.0623V63.0433C122.786 66.3913 120.75 68.0976 116.735 68.0976L116.747 68.1052ZM106.936 68.1052H94.0733V52.0399H106.925V55.3576H97.9169V58.2772H106.715V61.5494H97.9169V64.742L106.936 64.7571V68.0938V68.1052ZM114.433 40.4791H106.59L105.09 36.8998H97.0911L95.6374 40.4791H91.1316C89.1081 40.5854 87.1156 39.9501 85.5299 38.6932L85.5489 38.7046C84.7952 37.8764 84.2231 36.9007 83.8692 35.8398C83.5154 34.7789 83.3876 33.6561 83.4939 32.5431L83.4901 32.5735C83.3892 31.4399 83.5221 30.2977 83.8808 29.2172C84.2394 28.1367 84.8162 27.1408 85.5755 26.2907L85.5679 26.2983C86.3667 25.6015 87.301 25.0762 88.3127 24.7552C89.3243 24.4343 90.3914 24.3245 91.4475 24.4328L91.4171 24.429H95.1465V27.8528H91.4932C90.9586 27.7834 90.4152 27.8328 89.902 27.9973C89.3888 28.1618 88.9185 28.4375 88.5248 28.8045L88.5286 28.8008C87.7173 29.8401 87.3226 31.1429 87.4212 32.4559V32.437C87.301 33.7862 87.6815 35.1325 88.4906 36.221L88.4792 36.2059C89.2351 36.823 90.204 37.1198 91.1773 37.0325H91.1621H92.8898L98.3356 24.4062H104.12L110.639 39.5729V24.4062H116.503L123.27 35.584V24.4062H127.227V40.4525H121.732L114.425 28.4026V40.4525L114.433 40.4791ZM101.117 27.14L98.4649 33.5403H103.781L101.117 27.14ZM63.8268 40.4715H59.9756V24.4176H68.8349C70.4521 24.251 72.0844 24.5249 73.5576 25.21L73.5005 25.1873C74.0917 25.5149 74.5846 25.9935 74.9284 26.574C75.2723 27.1545 75.4546 27.8158 75.4566 28.4898L75.4489 28.7553V28.7439V28.8614C75.4492 29.7371 75.1959 30.5943 74.7193 31.3301C74.2428 32.0659 73.5632 32.649 72.7622 33.0095L72.7318 33.0209C73.4967 33.309 74.1398 33.7716 74.6308 34.3631L74.6384 34.3707C75.1851 35.2587 75.4094 36.3067 75.2739 37.3396L75.2777 37.3168V40.4677H71.3922L71.377 38.443V38.1396C71.5187 37.1495 71.2985 36.1416 70.7567 35.2997L70.7681 35.3186C70.3646 35.0245 69.9068 34.8125 69.421 34.6948C68.9352 34.577 68.4308 34.5558 67.9368 34.6323L67.9596 34.6285H63.8306V40.4677L63.8268 40.4715ZM63.8268 27.758V31.3222H68.5C69.1603 31.3966 69.828 31.278 70.4218 30.981L70.4028 30.9885C70.6458 30.8401 70.8468 30.6323 70.9866 30.3848C71.1265 30.1373 71.2006 29.8583 71.2019 29.5743L71.1981 29.4681C71.2175 29.18 71.1518 28.8963 71.0091 28.645C70.8664 28.3937 70.653 28.1895 70.3952 28.0576L70.3876 28.0538C69.8096 27.8025 69.1779 27.6983 68.5495 27.7505H68.5609L63.8268 27.758ZM23.0464 40.4715H15.2222L13.7419 36.8922H5.71975L4.22797 40.4715H0.0418611L6.94133 24.4176H12.6611L19.2104 39.6108V24.4176H25.4934L30.532 35.3035L35.1633 24.4176H41.5757V40.4639H37.6179L37.6103 27.9059L32.0276 40.4677H28.6482L23.0503 27.887V40.4677L23.0464 40.4715ZM9.71178 27.14L7.08975 33.5403H12.349L9.71178 27.14ZM81.5911 40.4677H77.6638V24.4176H81.5949V40.4639L81.5911 40.4677ZM57.2888 40.4677H44.4489V24.4176H57.3117V27.7543H48.3001V30.6473H57.0948V33.9423H48.2925V37.15H57.3041V40.4639L57.2888 40.4677Z" fill="#016FD0"/>
</g>
<defs>
<clipPath id="clip0_4943_1781">
<rect width="137" height="91" fill="white"/>
</clipPath>
</defs>
</svg>
