<svg width="91" height="91" viewBox="0 0 91 91" fill="none" xmlns="http://www.w3.org/2000/svg">
<path d="M42.8175 19.6027C42.4193 21.3848 38.8609 44.1461 38.8609 44.1461H44.2109C51.1421 44.1461 56.2912 38.415 56.2912 29.6999C56.2912 23.5707 52.727 19.6046 47.1968 19.6046L42.8175 19.6027ZM76.078 27.842C76.0855 37.9525 69.9127 45.3272 61.3985 49.936L69.1127 70.3693C71.2948 75.9184 72.6768 78.0834 75.0409 79.8674C74.4871 80.2118 73.8879 80.4772 73.2608 80.6561C69.4347 81.9363 65.4147 82.5394 61.3815 82.4382C57.4135 82.4382 52.0843 81.4486 48.7192 71.7608L42.99 55.1325H37.2608C37.2608 55.1325 35.4522 67.0232 34.6957 70.9589C34.3236 73.8508 34.3236 76.7784 34.6957 79.6703C30.2886 81.4033 25.5896 82.2734 20.8542 82.2334C17.8892 82.2334 15.125 81.2438 14.9241 76.1042C14.9572 74.7138 15.0896 73.3276 15.3203 71.9561L22.6325 24.8769C23.2415 21.2816 23.573 17.6448 23.6241 13.9986C23.6316 13.0298 23.6904 10.1216 23.6904 10.1216C26.0735 9.52822 34.1213 8.11393 50.7496 8.65045C55.8376 8.7208 60.8694 9.72587 65.594 11.6155C66.851 12.2249 68.0454 12.9557 69.1601 13.7976C70.1971 14.6661 71.1868 15.5894 72.1252 16.5637C73.3477 18.1334 74.3457 19.8657 75.0902 21.7108C75.7215 23.6944 76.0531 25.7606 76.078 27.842Z" stroke="#0997EB" stroke-width="4" stroke-linecap="round" stroke-linejoin="round"/>
</svg>
